<?xml version="1.0" encoding="utf-8"?>
<!-- Generator: Adobe Illustrator 25.0.0, SVG Export Plug-In . SVG Version: 6.00 Build 0)  -->
<svg version="1.1" id="Livello_1" xmlns="http://www.w3.org/2000/svg" xmlns:xlink="http://www.w3.org/1999/xlink" x="0px" y="0px"
	 viewBox="0 0 800 801.1" style="enable-background:new 0 0 800 801.1;" xml:space="preserve">
<style type="text/css">
	.st0{clip-path:url(#SVGID_2_);}
	.st1{opacity:0.1;}
	.st2{fill:#CCCCCC;}
</style>
<g id="Livello_2_1_">
	<g id="svg20361">
		<g id="g20369">
			<g id="g20371">
				<g>
					<defs>
						<rect id="SVGID_1_" x="0" y="0" width="800" height="800"/>
					</defs>
					<clipPath id="SVGID_2_">
						<use xlink:href="#SVGID_1_"  style="overflow:visible;"/>
					</clipPath>
					<g class="st0">
						<g id="g20373" class="st1">
							<path id="path20381" class="st2" d="M800,487.2l-390.9-85L800,450.8V487.2z"/>
							<path id="path20383" class="st2" d="M800,560.3L409.2,402.2L800,520.1V560.3z"/>
							<path id="path20385" class="st2" d="M800,645.8L409.3,402.2L800,598V645.8z"/>
							<path id="path20387" class="st2" d="M800,754.8L409.4,402.3L800,692.7V754.8z"/>
							<path id="path20389" class="st2" d="M716.2,801.1L409.4,402.4c0,0,184,196.3,373.7,398.8H716.2z"/>
							<path id="path20391" class="st2" d="M612.5,801.1l-203-398.7c0,0,121.2,188.9,255.7,398.7H612.5z"/>
							<path id="path20393" class="st2" d="M525.3,801.1c-62.5-215.3-115.7-398.6-115.7-398.6s74.5,184.7,160.9,398.6H525.3z"/>
							<path id="path20395" class="st2" d="M446.3,801.1l-36.7-398.5l78.3,398.5H446.3z"/>
							<path id="path20397" class="st2" d="M369.8,801.1c21.6-216.5,39.8-398.4,39.8-398.4s0.5,181.7,1.1,398.4H369.8z"/>
							<path id="path20399" class="st2" d="M290.6,801.1c64.2-215.1,118.9-398.3,118.9-398.3s-34.8,182.3-76,398.3H290.6z"/>
							<path id="path20401" class="st2" d="M203.1,801.1C313,589.2,409.5,403,409.5,403L251.4,801.1H203.1z"/>
							<path id="path20403" class="st2" d="M98.5,801.1l311-398.1L157.2,801.1H98.5z"/>
							<path id="path20405" class="st2" d="M0,801.1v-33.8l409.4-364.2l-369.1,398H0z"/>
							<path id="path20407" class="st2" d="M0,654.4l409.4-251.2L0,710.8V654.4z"/>
							<path id="path20409" class="st2" d="M0,565.5C220.7,478,409.2,403.2,409.2,403.2L0,611V565.5z"/>
							<path id="path20411" class="st2" d="M0,489.3l409.1-86.1L0,529V489.3z"/>
							<path id="path20413" class="st2" d="M0,419.1l409-15.8L0,456.2V419.1z"/>
							<path id="path20415" class="st2" d="M0,350l408.9,53.3L0,387.1V350z"/>
							<path id="path20417" class="st2" d="M0,277.3l408.8,126L0,316.9V277.3z"/>
							<path id="path20419" class="st2" d="M0,195.3l408.7,207.9L0,240.7V195.3z"/>
							<path id="path20421" class="st2" d="M0,95.5l408.6,307.6L0,151.9V95.5z"/>
							<path id="path20423" class="st2" d="M35.5,0l373.1,403.1L0,39V0H35.5z"/>
							<path id="path20425" class="st2" d="M153.6,0L408.5,403L94.3,0H153.6z"/>
							<path id="path20427" class="st2" d="M248.8,0l159.6,403c0,0-97.8-189.1-208.4-403H248.8z"/>
							<path id="path20429" class="st2" d="M332,0l76.4,402.9c0,0-55.3-185.9-119.9-402.9H332z"/>
							<path id="path20431" class="st2" d="M409.9,0c-0.8,218.6-1.5,402.8-1.5,402.8S390.1,218.4,368.6,0H409.9z"/>
							<path id="path20433" class="st2" d="M488,0l-79.6,402.7c0,0,17.2-184.3,37.5-402.7H488z"/>
							<path id="path20435" class="st2" d="M571.4,0l-163,402.6L525.7,0H571.4z"/>
							<path id="path20437" class="st2" d="M667.1,0L408.4,402.5L613.9,0H667.1z"/>
							<path id="path20439" class="st2" d="M786.4,0L408.5,402.4L718.7,0H786.4z"/>
							<path id="path20441" class="st2" d="M800,112L408.6,402.3L800,49.7V112z"/>
							<path id="path20443" class="st2" d="M800,206.6L408.7,402.2L800,158.8V206.6z"/>
							<path id="path20445" class="st2" d="M800,284.5L408.8,402.2L800,244.4V284.5z"/>
							<path id="path20447" class="st2" d="M800,353.9l-391.1,48.3L800,317.5V353.9z"/>
							<path id="path20449" class="st2" d="M800,420l-391-17.8l391-17.4V420z"/>
						</g>
					</g>
				</g>
			</g>
		</g>
	</g>
</g>
</svg>
