<svg xmlns="http://www.w3.org/2000/svg" viewBox="0 0 160.1 24.7">
  <defs>
    <style>
      .cls-1, .cls-4 {
        fill: #633001;
      }

      .cls-1, .cls-3 {
        fill-rule: evenodd;
      }

      .cls-2 {
        fill: #fedc90;
      }

      .cls-3 {
        fill: #d1884f;
      }
    </style>
  </defs>
  <g id="Livello_2" data-name="Livello 2">
    <g id="katman_1" data-name="katman 1">
      <path d="M31,19.2a1.55,1.55,0,0,1-.8-.2,1.45,1.45,0,0,1-.2-.7V7.1a1.17,1.17,0,0,1,.2-.7,1,1,0,0,1,.8-.3h4.7a6.36,6.36,0,0,1,4,1.1A4.59,4.59,0,0,1,41,10.6,4.24,4.24,0,0,1,39.7,14a6.16,6.16,0,0,1-4,1.1H33.9v3.1a1.17,1.17,0,0,1-.2.7c-.2.2-.4.2-.8.2H31Zm4.4-6.9a1.59,1.59,0,0,0,1.2-.4,1.7,1.7,0,0,0,.4-1.3,1.7,1.7,0,0,0-.4-1.3,1.59,1.59,0,0,0-1.2-.4H33.9v3.4Z"/>
      <path d="M45.5,19.5a3.7,3.7,0,0,1-2.9-1.2A4.86,4.86,0,0,1,41.5,15a5.07,5.07,0,0,1,.7-2.8,5.54,5.54,0,0,1,2.1-1.9,7.83,7.83,0,0,1,3.1-.7,10.32,10.32,0,0,1,2.6.3,7.84,7.84,0,0,1,2.1.9v7.7a.75.75,0,0,1-.1.5.75.75,0,0,1-.5.1h-2c-.1,0-.3,0-.3-.1l-.2-.2-.3-.6a4.46,4.46,0,0,1-3.2,1.3Zm1.4-2.6a1.59,1.59,0,0,0,1.2-.4,1.16,1.16,0,0,0,.4-1v-3a2.39,2.39,0,0,0-.9-.2A1.86,1.86,0,0,0,46,13a3,3,0,0,0-.6,2C45.4,16.2,45.9,16.9,46.9,16.9Z"/>
      <path d="M54.8,19.2A1.55,1.55,0,0,1,54,19a.84.84,0,0,1-.2-.7V10.5a.75.75,0,0,1,.1-.5.75.75,0,0,1,.5-.1h2c.2,0,.3,0,.3.1s.1.1.2.2l.1.6a3.22,3.22,0,0,1,1.4-.8,6,6,0,0,1,2-.3,3.49,3.49,0,0,1,2.5.9,3.46,3.46,0,0,1,1,2.6v5.1a1.17,1.17,0,0,1-.2.7c-.1.2-.4.2-.8.2H61a1.55,1.55,0,0,1-.8-.2.84.84,0,0,1-.2-.7V13.4c0-.4-.1-.7-.3-.8a1,1,0,0,0-.8-.3,1.22,1.22,0,0,0-.9.3,1.14,1.14,0,0,0-.3.8v4.8a1.17,1.17,0,0,1-.2.7c-.1.2-.4.2-.8.2H54.8Z"/>
      <path d="M70.7,19.5a6,6,0,0,1-4.2-1.3A4.33,4.33,0,0,1,65,14.6a4.62,4.62,0,0,1,.7-2.6,4.51,4.51,0,0,1,1.9-1.7,7.31,7.31,0,0,1,3-.6,6.87,6.87,0,0,1,2.2.3,4,4,0,0,1,1.6.8c.1.1.2.2.2.3s-.1.2-.2.4l-.8,1.4q-.15.3-.3.3c-.1,0-.2-.1-.4-.2a4.67,4.67,0,0,0-1-.5,3.59,3.59,0,0,0-1.1-.2,2.27,2.27,0,0,0-1.6.6,2.35,2.35,0,0,0-.6,1.7,2.35,2.35,0,0,0,.6,1.7,2.11,2.11,0,0,0,1.6.6,3.59,3.59,0,0,0,1.1-.2,4.67,4.67,0,0,0,1-.5c.2-.1.3-.2.4-.2s.2.1.3.3l.9,1.5a.37.37,0,0,1,.1.3c0,.1-.1.2-.2.3a7.5,7.5,0,0,1-1.8.8A4.09,4.09,0,0,1,70.7,19.5Z"/>
      <path d="M79.8,19.5a3.7,3.7,0,0,1-2.9-1.2A4.86,4.86,0,0,1,75.8,15a5.07,5.07,0,0,1,.7-2.8,5.54,5.54,0,0,1,2.1-1.9,7.83,7.83,0,0,1,3.1-.7,10.32,10.32,0,0,1,2.6.3,7.84,7.84,0,0,1,2.1.9v7.7a.75.75,0,0,1-.1.5.75.75,0,0,1-.5.1h-2c-.1,0-.3,0-.3-.1l-.2-.2-.3-.6a3.81,3.81,0,0,1-1.3.9A3.58,3.58,0,0,1,79.8,19.5Zm1.5-2.6a1.59,1.59,0,0,0,1.2-.4,1.16,1.16,0,0,0,.4-1v-3a2.39,2.39,0,0,0-.9-.2,1.86,1.86,0,0,0-1.6.7,3,3,0,0,0-.6,2C79.7,16.2,80.2,16.9,81.3,16.9Z"/>
      <path d="M98.6,18.5a.4.4,0,0,1-.3.7H94.9c-.1,0-.2-.1-.3-.2L92,15.4v2.8a1.17,1.17,0,0,1-.2.7c-.2.2-.4.2-.8.2H89.1a1.55,1.55,0,0,1-.8-.2,1.45,1.45,0,0,1-.2-.7V7.1a1.17,1.17,0,0,1,.2-.7,1,1,0,0,1,.8-.3H91a1,1,0,0,1,.8.3.84.84,0,0,1,.2.7v6.4l2.5-3.3c.1-.1.2-.2.3-.2s.2-.1.4-.1h3a.43.43,0,0,1,.3.7l-3.3,3.8Z"/>
      <path d="M104.8,19.5a8.81,8.81,0,0,1-2.9-.5,5.26,5.26,0,0,1-2-1.6,4.41,4.41,0,0,1-.7-2.6,4.82,4.82,0,0,1,1.4-3.7,5.52,5.52,0,0,1,4-1.3,4.87,4.87,0,0,1,3.8,1.3,4.46,4.46,0,0,1,1.3,3.5c0,.6-.3,1-.8,1h-6a1.49,1.49,0,0,0,.6,1.3,3.36,3.36,0,0,0,1.9.4,4.89,4.89,0,0,0,1.3-.1c.4-.1.7-.3,1.1-.4a.77.77,0,0,1,.3-.1c.1,0,.2.1.3.2l.7,1.2a.37.37,0,0,1,.1.3c0,.1-.1.2-.2.3a7.5,7.5,0,0,1-1.8.8A19.2,19.2,0,0,0,104.8,19.5Zm1.5-6a1.25,1.25,0,0,0-.4-1.1,2.31,2.31,0,0,0-2.6,0,1.37,1.37,0,0,0-.4,1.1Z"/>
      <path d="M116.4,19.5a15.53,15.53,0,0,1-3.1-.3,6.13,6.13,0,0,1-2.3-1,.54.54,0,0,1-.3-.4.37.37,0,0,1,.1-.3l.9-1.5c.1-.2.2-.2.3-.2a.37.37,0,0,1,.3.1,7.74,7.74,0,0,0,1.6.7,5.66,5.66,0,0,0,1.8.3,2.27,2.27,0,0,0,1.3-.3,1,1,0,0,0,.4-.9,1.05,1.05,0,0,0-.5-.9,8.1,8.1,0,0,0-1.8-.8,10.35,10.35,0,0,1-3-1.6A3.25,3.25,0,0,1,111,9.9,3.42,3.42,0,0,1,112.4,7,5.7,5.7,0,0,1,116,6a10.06,10.06,0,0,1,2.7.3,6.78,6.78,0,0,1,1.9.8c.2.2.3.3.3.5a.37.37,0,0,1-.1.3l-.9,1.5c-.1.2-.2.2-.3.2a.37.37,0,0,1-.3-.1,4.53,4.53,0,0,0-2.7-.7,2.27,2.27,0,0,0-1.3.3,1,1,0,0,0-.4.9,1.45,1.45,0,0,0,.2.7c.2.2.4.3.6.5s.7.3,1.2.5l.4.1a11.17,11.17,0,0,1,2.2,1.1,3.25,3.25,0,0,1,1.3,1.3,3.42,3.42,0,0,1,.4,1.8,3.1,3.1,0,0,1-1.3,2.7A6.89,6.89,0,0,1,116.4,19.5Z"/>
      <path d="M125.5,19.2c-.2,0-.3,0-.4-.1a.52.52,0,0,1-.2-.4l-2.5-8.3v-.2c0-.2.1-.3.4-.3h2.5c.2,0,.3,0,.4.1a.77.77,0,0,1,.2.3l1,4.4,1.3-3.5c.1-.2.1-.3.2-.3s.2-.1.4-.1H130c.2,0,.3,0,.4.1s.1.2.2.3l1.3,3.5,1.1-4.4c0-.1.1-.2.2-.3a.37.37,0,0,1,.3-.1h2.6c.3,0,.4.1.4.3v.2L134,18.7c-.1.2-.1.3-.2.4s-.2.1-.4.1h-1.9c-.2,0-.3,0-.4-.1a.52.52,0,0,1-.2-.4l-1.3-3.5-1.3,3.5c-.1.2-.1.3-.2.4s-.2.1-.4.1Z"/>
      <path d="M141.1,19.5a3.7,3.7,0,0,1-2.9-1.2,4.86,4.86,0,0,1-1.1-3.3,5.07,5.07,0,0,1,.7-2.8,5.54,5.54,0,0,1,2.1-1.9,7.83,7.83,0,0,1,3.1-.7,10.32,10.32,0,0,1,2.6.3,7.84,7.84,0,0,1,2.1.9v7.7a.75.75,0,0,1-.1.5.75.75,0,0,1-.5.1h-2a.37.37,0,0,1-.3-.1l-.2-.2-.3-.6a3.81,3.81,0,0,1-1.3.9A3.58,3.58,0,0,1,141.1,19.5Zm1.5-2.6a1.59,1.59,0,0,0,1.2-.4,1.16,1.16,0,0,0,.4-1v-3a2.39,2.39,0,0,0-.9-.2,1.86,1.86,0,0,0-1.6.7,3,3,0,0,0-.6,2C141,16.2,141.5,16.9,142.6,16.9Z"/>
      <path d="M150.4,23.1a1.55,1.55,0,0,1-.8-.2,1.45,1.45,0,0,1-.2-.7v-11a6.39,6.39,0,0,1,2.2-1,8.42,8.42,0,0,1,2.7-.4c3.9,0,5.8,1.6,5.8,4.9a5.22,5.22,0,0,1-1.2,3.6,4.46,4.46,0,0,1-3.5,1.3,5,5,0,0,1-1.2-.2,3,3,0,0,1-1-.4v3.2a1.17,1.17,0,0,1-.2.7c-.2.2-.4.2-.8.2Zm4.2-6.2a1.21,1.21,0,0,0,1.2-.6,2.86,2.86,0,0,0,.4-1.7,3,3,0,0,0-.5-1.8,2.07,2.07,0,0,0-1.5-.5,2.51,2.51,0,0,0-1,.2v3a1.37,1.37,0,0,0,1.4,1.4Z"/>
      <path class="cls-1" d="M4.5,3.9A3.28,3.28,0,1,1,11,3.3v4h2.7v-4a3.28,3.28,0,1,1,6.5.6l-.9,4.7c3,1.3,5.3,3.6,5.3,6.5v1.7c0,2.4-1.6,4.4-3.8,5.7a16,16,0,0,1-8.5,2.2,16,16,0,0,1-8.5-2.2C1.6,21.2,0,19.2,0,16.8V15.1c0-2.9,2.3-5.2,5.3-6.5ZM18.2,9.3l1-5.5a2.27,2.27,0,1,0-4.5-.4V8.5c-.3,0-.7-.1-1-.1H12.4a6.6,6.6,0,0,0-1.4.1c-.3,0-.7.1-1,.1V3.5a2.27,2.27,0,1,0-4.5.4l1,5.6c-3.2,1.2-5.4,3.4-5.4,5.9v1.7c0,3.8,5,6.9,11.2,6.9s11.2-3.1,11.2-6.9V15.4C23.6,12.7,21.4,10.5,18.2,9.3Z"/>
      <path class="cls-2" d="M23.6,16.9c0,3.8-5,6.9-11.2,6.9S1.2,20.7,1.2,16.9V15.2H23.7v1.7Z"/>
      <path class="cls-3" d="M5.5,3.7A2.27,2.27,0,1,1,10,3.3V8.5a19.42,19.42,0,0,1,2.4-.2c.8,0,1.6.1,2.3.1V3.3a2.27,2.27,0,1,1,4.5.4l-1,5.5c3.3,1.2,5.5,3.4,5.5,5.9,0,3.8-5,6.9-11.2,6.9S1.3,18.9,1.3,15.1c0-2.5,2.2-4.7,5.4-5.9Z"/>
      <path class="cls-4" d="M9.3,14.7c0,1-.6,1.9-1.2,1.9s-1.2-.8-1.2-1.9.6-1.9,1.2-1.9S9.3,13.6,9.3,14.7Z"/>
      <path class="cls-4" d="M17.9,14.7c0,1-.6,1.9-1.2,1.9s-1.2-.8-1.2-1.9.6-1.9,1.2-1.9S17.9,13.6,17.9,14.7Z"/>
    </g>
  </g>
</svg>
